<?xml version="1.0" standalone="no"?>
<!DOCTYPE svg PUBLIC "-//W3C//DTD SVG 20010904//EN"
 "http://www.w3.org/TR/2001/REC-SVG-20010904/DTD/svg10.dtd">
<svg version="1.0" xmlns="http://www.w3.org/2000/svg"
 width="100.000000pt" height="100.000000pt" viewBox="0 0 100.000000 100.000000"
 preserveAspectRatio="xMidYMid meet">
<metadata>
Created by potrace 1.16, written by Peter Selinger 2001-2019
</metadata>
<g transform="translate(0.000000,100.000000) scale(0.100000,-0.100000)"
fill="#ffffff" stroke="none">
<path d="M12 868 c-9 -9 -12 -103 -12 -363 0 -328 1 -353 18 -368 17 -15 63
-17 463 -17 386 0 447 2 467 16 22 15 22 17 22 288 0 198 -3 275 -12 284 -7 7
-27 12 -45 12 -26 0 -33 4 -33 19 0 45 -30 51 -254 51 l-209 0 -48 45 -48 45
-149 0 c-102 0 -152 -4 -160 -12z m337 -73 l48 -45 219 -2 219 -3 3 -293 2
-292 -397 2 -398 3 -3 57 -3 58 326 0 c306 0 326 1 323 18 -3 16 -28 17 -326
20 l-322 2 0 260 0 260 130 0 131 0 48 -45z m581 -369 c0 -257 -4 -282 -35
-256 -12 10 -15 56 -15 261 l0 249 25 0 25 0 0 -254z"/>
<path d="M356 687 c-14 -11 -16 -32 -14 -162 l3 -150 25 -3 c17 -1 60 21 133
68 139 91 140 94 9 176 -134 85 -136 86 -156 71z m123 -101 l85 -54 -87 -56
c-48 -31 -89 -56 -92 -56 -3 0 -5 50 -5 110 0 61 3 110 8 110 4 0 45 -25 91
-54z"/>
</g>
</svg>
