<?xml version="1.0" standalone="no"?>
<!DOCTYPE svg PUBLIC "-//W3C//DTD SVG 20010904//EN"
 "http://www.w3.org/TR/2001/REC-SVG-20010904/DTD/svg10.dtd">
<svg version="1.0" xmlns="http://www.w3.org/2000/svg"
 width="100.000000pt" height="100.000000pt" viewBox="0 0 100.000000 100.000000"
 preserveAspectRatio="xMidYMid meet">
<metadata>
Created by potrace 1.16, written by Peter Selinger 2001-2019
</metadata>
<g transform="translate(0.000000,100.000000) scale(0.100000,-0.100000)"
fill="#1e293b" stroke="none">
<path d="M388 921 c-200 -66 -318 -238 -306 -445 9 -138 67 -248 174 -330 81
-62 143 -81 269 -81 103 0 114 2 178 32 72 35 177 125 177 153 0 21 -19 30
-60 30 -58 0 -140 40 -195 95 -71 72 -98 142 -93 245 4 93 33 157 100 221 26
25 48 51 48 57 0 39 -196 55 -292 23z m195 -37 c3 -4 -9 -25 -28 -47 -52 -60
-77 -136 -77 -232 0 -49 6 -98 16 -125 41 -112 136 -204 250 -239 l56 -17 -45
-33 c-85 -61 -130 -76 -235 -76 -87 0 -101 3 -161 33 -85 41 -168 128 -200
209 -32 81 -32 205 0 285 41 105 153 205 260 234 49 13 153 18 164 8z"/>
</g>
</svg>
