<?xml version="1.0" standalone="no"?>
<!DOCTYPE svg PUBLIC "-//W3C//DTD SVG 20010904//EN"
 "http://www.w3.org/TR/2001/REC-SVG-20010904/DTD/svg10.dtd">
<svg version="1.0" xmlns="http://www.w3.org/2000/svg"
 width="100.000000pt" height="100.000000pt" viewBox="0 0 100.000000 100.000000"
 preserveAspectRatio="xMidYMid meet">
<metadata>
Created by potrace 1.16, written by Peter Selinger 2001-2019
</metadata>
<g transform="translate(0.000000,100.000000) scale(0.100000,-0.100000)"
fill="#1e293b" stroke="none">
<path d="M692 956 c-11 -24 -11 -24 -63 -9 -36 11 -82 14 -154 11 -93 -3 -108
-6 -177 -40 -351 -174 -346 -673 9 -841 65 -31 73 -32 194 -32 124 0 126 0
200 37 95 47 177 130 222 225 27 59 32 81 35 169 3 71 0 117 -11 153 -14 50
-14 52 7 63 34 18 36 29 9 81 -32 65 -106 142 -168 178 -62 35 -88 37 -103 5z
m94 -65 c56 -41 134 -130 134 -152 0 -4 -12 -12 -27 -17 -16 -6 -87 -35 -160
-65 l-131 -55 55 131 c30 73 59 144 65 160 5 15 13 27 17 27 5 0 26 -13 47
-29z m-306 -176 l0 -195 -196 0 -197 0 5 44 c11 96 94 227 175 277 56 35 145
69 181 69 l32 0 0 -195z m140 181 c20 -8 34 -19 33 -27 -2 -8 -30 -79 -63
-158 -64 -155 -70 -181 -42 -181 10 0 88 29 173 64 85 35 157 62 160 60 17
-10 31 -100 27 -176 -3 -68 -9 -94 -35 -148 -60 -122 -43 -125 -208 40 l-145
145 0 197 0 198 33 -1 c17 0 48 -6 67 -13z m10 -561 c165 -165 162 -148 40
-208 -61 -30 -72 -32 -171 -32 -101 0 -108 1 -181 37 -47 24 -91 55 -117 84
-51 54 -102 158 -109 220 l-5 44 199 0 199 0 145 -145z"/>
</g>
</svg>
