<svg width="40" height="24" viewBox="0 0 40 24" fill="none" xmlns="http://www.w3.org/2000/svg">
<path d="M37.7308 8.73114C37.2429 8.19088 31.988 3.91955 31.0487 3.64341C30.64 3.52476 30.2291 3.45048 29.8044 3.41938C27.8403 3.27556 25.6737 3.89118 24.3083 5.36272C24.1894 5.49096 24.1213 5.56424 24.1213 5.56424C24.1213 5.56424 24.1722 5.47764 24.2612 5.32615C24.6823 4.61617 25.2958 3.99959 25.9527 3.50593C26.2555 3.27846 26.5761 3.07482 26.9109 2.89794C27.0027 2.84944 27.8566 2.38814 27.914 2.44861C27.9139 2.44848 27.4479 1.95707 27.4479 1.95707C26.6985 1.20757 25.8876 0.561539 24.7834 0.561539C23.4148 0.561539 22.2453 1.41009 21.7695 2.60931C21.3657 2.30922 20.7235 2.11508 19.9999 2.11508C19.2764 2.11508 18.6341 2.30922 18.2304 2.60931C17.7546 1.41004 16.585 0.561539 15.2164 0.561539C14.1122 0.561539 13.3013 1.20757 12.5519 1.95703C12.5519 1.95703 12.0859 2.44844 12.0858 2.44857C12.1431 2.38805 12.997 2.8494 13.0888 2.8979C13.4237 3.07478 13.7443 3.27842 14.0471 3.50588C14.7042 3.99951 15.3175 4.61612 15.7386 5.3261C15.8276 5.47764 15.8785 5.5642 15.8785 5.5642C15.8785 5.5642 15.8105 5.49092 15.6915 5.36268C14.3261 3.89113 12.1595 3.27551 10.1955 3.41933C9.77078 3.45044 9.35989 3.52471 8.95117 3.64337C8.01186 3.91951 2.75688 8.19084 2.26903 8.7311C0.858874 10.2927 0 12.3617 0 14.6315C0 19.4954 3.943 23.4385 8.80696 23.4385C13.2564 23.4385 16.9345 20.1386 17.5292 15.8527C18.2226 16.3579 19.0764 16.6562 20 16.6562C20.9236 16.6562 21.7774 16.3579 22.4708 15.8527C23.0655 20.1385 26.7435 23.4385 31.193 23.4385C36.057 23.4385 40 19.4954 40 14.6315C39.9999 12.3617 39.141 10.2928 37.7308 8.73114ZM8.6116 20.163C5.67836 20.163 3.30048 17.785 3.30048 14.8519C3.30048 11.9187 5.67836 9.54078 8.6116 9.54078C11.5448 9.54078 13.9227 11.9187 13.9227 14.8519C13.9227 17.785 11.5448 20.163 8.6116 20.163ZM19.9999 14.3529C19.2262 14.3529 18.599 13.7257 18.599 12.9521C18.599 12.1784 19.2262 11.5512 19.9999 11.5512C20.7736 11.5512 21.4008 12.1784 21.4008 12.9521C21.4008 13.7257 20.7736 14.3529 19.9999 14.3529ZM31.3882 20.163C28.455 20.163 26.0771 17.785 26.0771 14.8519C26.0771 11.9187 28.455 9.54078 31.3882 9.54078C34.3215 9.54078 36.6993 11.9187 36.6993 14.8519C36.6993 17.785 34.3215 20.163 31.3882 20.163Z" fill="black"/>
</svg>
