<svg width="60" height="47" viewBox="0 0 60 47" fill="none" xmlns="http://www.w3.org/2000/svg">
<path d="M20.3351 0.138327C13.4505 1.14295 7.48186 4.91028 3.7884 10.5391C-1.88476 19.2114 -1.13129 30.2474 5.67945 38.4469C8.94447 42.362 14.2335 45.3611 19.5225 46.3066C21.517 46.6612 25.0923 46.6612 26.9095 46.3066C28.9335 45.9225 29.8199 45.6122 29.7165 45.3463C29.6722 45.2133 29.096 43.7064 28.4312 41.9926L27.2345 38.8901L26.3333 39.0822C25.831 39.1856 24.7673 39.3186 23.9399 39.3776C16.0064 39.8652 8.63422 33.7636 7.40799 25.6823C7.12729 23.9094 7.12729 22.5798 7.40799 20.7626C7.98417 16.8919 10.1116 13.1393 13.0959 10.7312C14.529 9.56404 17.0258 8.27871 18.71 7.82072C24.2058 6.34334 30.1449 7.80595 34.0748 11.6471C34.5032 12.0608 34.8726 12.3858 34.8873 12.3563C34.9169 12.3267 35.7885 10.9232 36.8079 9.20947L38.6842 6.12173L38.0489 5.56033C34.6805 2.66465 30.5438 0.80315 26.0969 0.197423C24.4275 -0.0389586 21.65 -0.0685063 20.3351 0.138327Z" fill="white"/>
<path d="M56.0289 1.08904L52.1019 1.16203L49.591 6.34453C48.2041 9.19126 44.934 15.9212 42.3355 21.3081C39.7223 26.6804 37.3281 31.6147 37.007 32.257L36.4084 33.4249L32.5836 25.6877C30.4814 21.4249 28.496 17.4103 28.1748 16.7387L27.5909 15.5416H23.6639H19.7368L27.2113 30.4906L34.6858 45.4542L36.4376 45.498L38.1749 45.5417L40.7296 40.3592C42.1311 37.5125 44.569 32.5198 46.1603 29.2643C47.7515 26.0088 49.9121 21.6147 50.9778 19.4833C54.1165 13.1621 60.0436 1.05984 59.9998 1.03065C59.9706 1.03065 58.1895 1.04524 56.0289 1.08904Z" fill="white"/>
</svg>
