<svg viewBox="0 0 760 140" fill="none" xmlns="http://www.w3.org/2000/svg">
  <g clip-path="url(#clip0_4513_363872)">
    <g filter="url(#filter0_f_4513_363872)">
      <ellipse cx="385.952" cy="29.0647" rx="79.6867" ry="24.5627" fill="url(#paint0_radial_4513_363872)"></ellipse>
    </g>
  </g>
  <path d="M105.122 100L58 22C58 22 238.634 4 375.091 4C511.549 4 702 22 702 22L654.878 100H105.122Z" fill="url(#paint1_linear_4513_363872)"></path>
  <path d="M358.452 23.7037H365.31V25.0357H359.946V29.1577H364.86V30.4897H359.946V34.9717H365.4V36.3037H358.452V23.7037ZM370.226 32.2537H369.398V36.3037H367.958V27.3037H369.398V31.3717L370.172 31.1197L373.052 27.3037H374.618L371.828 30.9217L371.072 31.5157L372.008 32.2357L375.014 36.3037H373.232L370.226 32.2537ZM376.554 27.3037H377.544L377.814 28.3837H377.886C378.162 27.9637 378.516 27.6457 378.948 27.4297C379.392 27.2017 379.896 27.0877 380.46 27.0877C381.66 27.0877 382.554 27.4417 383.142 28.1497C383.73 28.8577 384.024 30.0157 384.024 31.6237C384.024 32.3797 383.922 33.0637 383.718 33.6757C383.526 34.2757 383.25 34.7857 382.89 35.2057C382.53 35.6257 382.092 35.9497 381.576 36.1777C381.072 36.4057 380.508 36.5197 379.884 36.5197C379.44 36.5197 379.086 36.4897 378.822 36.4297C378.57 36.3817 378.294 36.2917 377.994 36.1597V39.9037H376.554V27.3037ZM380.19 28.3477C379.578 28.3477 379.092 28.5097 378.732 28.8337C378.384 29.1457 378.138 29.6257 377.994 30.2737V34.7377C378.21 34.9057 378.456 35.0377 378.732 35.1337C379.008 35.2177 379.374 35.2597 379.83 35.2597C380.658 35.2597 381.312 34.9537 381.792 34.3417C382.284 33.7177 382.53 32.8057 382.53 31.6057C382.53 31.1137 382.488 30.6697 382.404 30.2737C382.32 29.8657 382.182 29.5237 381.99 29.2477C381.81 28.9597 381.57 28.7377 381.27 28.5817C380.982 28.4257 380.622 28.3477 380.19 28.3477ZM386.148 27.9697C386.604 27.6937 387.132 27.4897 387.732 27.3577C388.344 27.2257 388.98 27.1597 389.64 27.1597C390.264 27.1597 390.762 27.2437 391.134 27.4117C391.518 27.5797 391.806 27.8017 391.998 28.0777C392.202 28.3417 392.334 28.6357 392.394 28.9597C392.466 29.2837 392.502 29.6077 392.502 29.9317C392.502 30.6517 392.484 31.3537 392.448 32.0377C392.412 32.7217 392.394 33.3697 392.394 33.9817C392.394 34.4257 392.412 34.8457 392.448 35.2417C392.484 35.6377 392.55 36.0037 392.646 36.3397H391.584L391.206 35.0797H391.116C391.008 35.2477 390.87 35.4157 390.702 35.5837C390.546 35.7397 390.354 35.8837 390.126 36.0157C389.898 36.1357 389.634 36.2377 389.334 36.3217C389.034 36.4057 388.692 36.4477 388.308 36.4477C387.924 36.4477 387.564 36.3877 387.228 36.2677C386.904 36.1477 386.622 35.9797 386.382 35.7637C386.142 35.5357 385.95 35.2657 385.806 34.9537C385.674 34.6417 385.608 34.2877 385.608 33.8917C385.608 33.3637 385.716 32.9257 385.932 32.5777C386.148 32.2177 386.448 31.9357 386.832 31.7317C387.228 31.5157 387.696 31.3657 388.236 31.2817C388.788 31.1857 389.394 31.1377 390.054 31.1377C390.222 31.1377 390.384 31.1377 390.54 31.1377C390.708 31.1377 390.876 31.1497 391.044 31.1737C391.08 30.8137 391.098 30.4897 391.098 30.2017C391.098 29.5417 390.966 29.0797 390.702 28.8157C390.438 28.5517 389.958 28.4197 389.262 28.4197C389.058 28.4197 388.836 28.4377 388.596 28.4737C388.368 28.4977 388.128 28.5397 387.876 28.5997C387.636 28.6477 387.402 28.7137 387.174 28.7977C386.958 28.8697 386.766 28.9537 386.598 29.0497L386.148 27.9697ZM388.704 35.1877C389.04 35.1877 389.34 35.1457 389.604 35.0617C389.868 34.9657 390.096 34.8517 390.288 34.7197C390.48 34.5757 390.636 34.4197 390.756 34.2517C390.888 34.0837 390.984 33.9217 391.044 33.7657V32.2717C390.876 32.2597 390.702 32.2537 390.522 32.2537C390.354 32.2417 390.186 32.2357 390.018 32.2357C389.646 32.2357 389.28 32.2597 388.92 32.3077C388.572 32.3437 388.26 32.4217 387.984 32.5417C387.72 32.6497 387.504 32.8057 387.336 33.0097C387.18 33.2017 387.102 33.4477 387.102 33.7477C387.102 34.1677 387.252 34.5157 387.552 34.7917C387.852 35.0557 388.236 35.1877 388.704 35.1877ZM400.73 32.3257H396.662V36.3037H395.222V27.3037H396.662V31.0657H400.73V27.3037H402.17V36.3037H400.73V32.3257Z" fill="white"></path>
  <path d="M58.269 21.6729C58.269 21.6729 237.556 2.56494 379.614 2.56494C521.672 2.56494 700.958 21.6729 700.958 21.6729" stroke="#A2A2A2" stroke-width="3.33865" stroke-linecap="round"></path>
  <defs>
    <filter id="filter0_f_4513_363872" x="221.265" y="-80.498" width="329.373" height="219.125" filterUnits="userSpaceOnUse" color-interpolation-filters="sRGB">
      <feFlood flood-opacity="0" result="BackgroundImageFix"></feFlood>
      <feBlend mode="normal" in="SourceGraphic" in2="BackgroundImageFix" result="shape"></feBlend>
      <feGaussianBlur stdDeviation="42.5" result="effect1_foregroundBlur_4513_363872"></feGaussianBlur>
    </filter>
    <radialGradient id="paint0_radial_4513_363872" cx="0" cy="0" r="1" gradientUnits="userSpaceOnUse" gradientTransform="translate(385.952 29.0647) rotate(13.9517) scale(55.5687 26.6126)">
      <stop stop-color="#FED530"></stop>
      <stop offset="0.0989506" stop-color="#FED530" stop-opacity="0.901049"></stop>
      <stop offset="0.171869" stop-color="#FED530" stop-opacity="0.828131"></stop>
      <stop offset="0.239578" stop-color="#FED530" stop-opacity="0.760422"></stop>
      <stop offset="0.317705" stop-color="#FED530" stop-opacity="0.682295"></stop>
      <stop offset="0.406248" stop-color="#FED530" stop-opacity="0.593752"></stop>
      <stop offset="0.484374" stop-color="#FED530" stop-opacity="0.515626"></stop>
      <stop offset="0.557292" stop-color="#FED530" stop-opacity="0.442708"></stop>
      <stop offset="0.635419" stop-color="#FED530" stop-opacity="0.364581"></stop>
      <stop offset="0.703128" stop-color="#FED530" stop-opacity="0.296872"></stop>
      <stop offset="0.776046" stop-color="#FED530" stop-opacity="0.223954"></stop>
      <stop offset="0.848964" stop-color="#FED530" stop-opacity="0.151036"></stop>
      <stop offset="0.911465" stop-color="#FED530" stop-opacity="0.0885348"></stop>
      <stop offset="1" stop-color="#FED530" stop-opacity="0"></stop>
    </radialGradient>
    <linearGradient id="paint1_linear_4513_363872" x1="380.982" y1="4" x2="380.982" y2="100" gradientUnits="userSpaceOnUse">
      <stop stop-color="white" stop-opacity="0.2"></stop>
      <stop offset="1" stop-color="white" stop-opacity="0"></stop>
    </linearGradient>
    <clipPath id="clip0_4513_363872">
      <rect width="434" height="75" fill="white" transform="translate(164 4)"></rect>
    </clipPath>
  </defs>
</svg>