<svg width="760" height="140" viewBox="0 0 760 140" fill="none" xmlns="http://www.w3.org/2000/svg">
<mask id="mask0_295_2" style="mask-type:luminance" maskUnits="userSpaceOnUse" x="164" y="4" width="434" height="75">
<path d="M598 4H164V79H598V4Z" fill="white"/>
</mask>
<g mask="url(#mask0_295_2)">
<g filter="url(#filter0_f_295_2)">
<path d="M385.952 53.6274C429.962 53.6274 465.639 42.6303 465.639 29.0647C465.639 15.499 429.962 4.50195 385.952 4.50195C341.942 4.50195 306.265 15.499 306.265 29.0647C306.265 42.6303 341.942 53.6274 385.952 53.6274Z" fill="url(#paint0_radial_295_2)"/>
</g>
</g>
<path d="M105.122 100L58 22C58 22 238.634 4 375.091 4C511.549 4 702 22 702 22L654.878 100H105.122Z" fill="url(#paint1_linear_295_2)"/>
<path d="M358.452 23.7036H365.31V25.0356H359.946V29.1576H364.86V30.4896H359.946V34.9716H365.4V36.3036H358.452V23.7036ZM370.226 32.2536H369.398V36.3036H367.958V27.3036H369.398V31.3716L370.172 31.1196L373.052 27.3036H374.618L371.828 30.9216L371.072 31.5156L372.008 32.2356L375.014 36.3036H373.232L370.226 32.2536ZM376.554 27.3036H377.544L377.814 28.3836H377.886C378.162 27.9636 378.516 27.6456 378.948 27.4296C379.392 27.2016 379.896 27.0876 380.46 27.0876C381.66 27.0876 382.554 27.4416 383.142 28.1496C383.73 28.8576 384.024 30.0156 384.024 31.6236C384.024 32.3796 383.922 33.0636 383.718 33.6756C383.526 34.2756 383.25 34.7856 382.89 35.2056C382.53 35.6256 382.092 35.9496 381.576 36.1776C381.072 36.4056 380.508 36.5196 379.884 36.5196C379.44 36.5196 379.086 36.4896 378.822 36.4296C378.57 36.3816 378.294 36.2916 377.994 36.1596V39.9036H376.554V27.3036ZM380.19 28.3476C379.578 28.3476 379.092 28.5096 378.732 28.8336C378.384 29.1456 378.138 29.6256 377.994 30.2736V34.7376C378.21 34.9056 378.456 35.0376 378.732 35.1336C379.008 35.2176 379.374 35.2596 379.83 35.2596C380.658 35.2596 381.312 34.9536 381.792 34.3416C382.284 33.7176 382.53 32.8056 382.53 31.6056C382.53 31.1136 382.488 30.6696 382.404 30.2736C382.32 29.8656 382.182 29.5236 381.99 29.2476C381.81 28.9596 381.57 28.7376 381.27 28.5816C380.982 28.4256 380.622 28.3476 380.19 28.3476ZM386.148 27.9696C386.604 27.6936 387.132 27.4896 387.732 27.3576C388.344 27.2256 388.98 27.1596 389.64 27.1596C390.264 27.1596 390.762 27.2436 391.134 27.4116C391.518 27.5796 391.806 27.8016 391.998 28.0776C392.202 28.3416 392.334 28.6356 392.394 28.9596C392.466 29.2836 392.502 29.6076 392.502 29.9316C392.502 30.6516 392.484 31.3536 392.448 32.0376C392.412 32.7216 392.394 33.3696 392.394 33.9816C392.394 34.4256 392.412 34.8456 392.448 35.2416C392.484 35.6376 392.55 36.0036 392.646 36.3396H391.584L391.206 35.0796H391.116C391.008 35.2476 390.87 35.4156 390.702 35.5836C390.546 35.7396 390.354 35.8836 390.126 36.0156C389.898 36.1356 389.634 36.2376 389.334 36.3216C389.034 36.4056 388.692 36.4476 388.308 36.4476C387.924 36.4476 387.564 36.3876 387.228 36.2676C386.904 36.1476 386.622 35.9796 386.382 35.7636C386.142 35.5356 385.95 35.2656 385.806 34.9536C385.674 34.6416 385.608 34.2876 385.608 33.8916C385.608 33.3636 385.716 32.9256 385.932 32.5776C386.148 32.2176 386.448 31.9356 386.832 31.7316C387.228 31.5156 387.696 31.3656 388.236 31.2816C388.788 31.1856 389.394 31.1376 390.054 31.1376C390.222 31.1376 390.384 31.1376 390.54 31.1376C390.708 31.1376 390.876 31.1496 391.044 31.1736C391.08 30.8136 391.098 30.4896 391.098 30.2016C391.098 29.5416 390.966 29.0796 390.702 28.8156C390.438 28.5516 389.958 28.4196 389.262 28.4196C389.058 28.4196 388.836 28.4376 388.596 28.4736C388.368 28.4976 388.128 28.5396 387.876 28.5996C387.636 28.6476 387.402 28.7136 387.174 28.7976C386.958 28.8696 386.766 28.9536 386.598 29.0496L386.148 27.9696ZM388.704 35.1876C389.04 35.1876 389.34 35.1456 389.604 35.0616C389.868 34.9656 390.096 34.8516 390.288 34.7196C390.48 34.5756 390.636 34.4196 390.756 34.2516C390.888 34.0836 390.984 33.9216 391.044 33.7656V32.2716C390.876 32.2596 390.702 32.2536 390.522 32.2536C390.354 32.2416 390.186 32.2356 390.018 32.2356C389.646 32.2356 389.28 32.2596 388.92 32.3076C388.572 32.3436 388.26 32.4216 387.984 32.5416C387.72 32.6496 387.504 32.8056 387.336 33.0096C387.18 33.2016 387.102 33.4476 387.102 33.7476C387.102 34.1676 387.252 34.5156 387.552 34.7916C387.852 35.0556 388.236 35.1876 388.704 35.1876ZM400.73 32.3256H396.662V36.3036H395.222V27.3036H396.662V31.0656H400.73V27.3036H402.17V36.3036H400.73V32.3256Z" fill="#1E293B"/>
<path d="M58.269 21.6729C58.269 21.6729 237.556 2.56494 379.614 2.56494C521.672 2.56494 700.958 21.6729 700.958 21.6729" stroke="#1E293B" stroke-width="3.33865" stroke-linecap="round"/>
<defs>
<filter id="filter0_f_295_2" x="221.265" y="-80.498" width="329.373" height="219.125" filterUnits="userSpaceOnUse" color-interpolation-filters="sRGB">
<feFlood flood-opacity="0" result="BackgroundImageFix"/>
<feBlend mode="normal" in="SourceGraphic" in2="BackgroundImageFix" result="shape"/>
<feGaussianBlur stdDeviation="42.5" result="effect1_foregroundBlur_295_2"/>
</filter>
<radialGradient id="paint0_radial_295_2" cx="0" cy="0" r="1" gradientUnits="userSpaceOnUse" gradientTransform="translate(385.952 29.0647) rotate(13.9517) scale(55.5687 26.6126)">
<stop stop-color="white"/>
<stop offset="0.0989506" stop-color="white" stop-opacity="0.901049"/>
<stop offset="0.171869" stop-color="white" stop-opacity="0.828131"/>
<stop offset="0.239578" stop-color="white" stop-opacity="0.760422"/>
<stop offset="0.317705" stop-color="white" stop-opacity="0.682295"/>
<stop offset="0.406248" stop-color="white" stop-opacity="0.593752"/>
<stop offset="0.484374" stop-color="white" stop-opacity="0.515626"/>
<stop offset="0.557292" stop-color="white" stop-opacity="0.442708"/>
<stop offset="0.635419" stop-color="white" stop-opacity="0.364581"/>
<stop offset="0.703128" stop-color="white" stop-opacity="0.296872"/>
<stop offset="0.776046" stop-color="white" stop-opacity="0.223954"/>
<stop offset="0.848964" stop-color="white" stop-opacity="0.151036"/>
<stop offset="0.911465" stop-color="white" stop-opacity="0.0885348"/>
<stop offset="1" stop-color="white" stop-opacity="0"/>
</radialGradient>
<linearGradient id="paint1_linear_295_2" x1="380.982" y1="4" x2="380.982" y2="100" gradientUnits="userSpaceOnUse">
<stop stop-color="#1E293B" stop-opacity="0.2"/>
<stop offset="1" stop-color="white" stop-opacity="0"/>
</linearGradient>
</defs>
</svg>