<svg width="40" height="40" viewBox="0 0 40 40" fill="none" xmlns="http://www.w3.org/2000/svg">
<g clip-path="url(#clip0_112_35)">
<path d="M33.4356 39.5866C32.5524 38.9011 32.3691 37.6621 33.0545 36.78C33.1336 36.6549 33.7664 35.4842 31.6731 33.3711C31.4515 33.147 31.2737 32.9137 31.0825 32.683C32.1832 31.8829 33.193 30.9733 34.1039 29.9661C34.2423 30.1534 34.3728 30.3432 34.5494 30.5211C39.2608 35.276 36.4239 39.0397 36.3027 39.1951C35.6159 40.0784 34.3174 40.2733 33.4356 39.5866Z" fill="black"/>
<path d="M2.74044 16.8682C2.74044 7.55081 10.2925 0 19.6085 0C28.9232 0 36.4767 7.55081 36.4767 16.8682C36.4767 26.1829 28.9232 33.735 19.6085 33.735C10.2925 33.735 2.74044 26.1829 2.74044 16.8682ZM6.72944 16.8682C6.72944 19.2699 8.67778 21.2157 11.0783 21.2157C13.4802 21.2157 15.427 19.2699 15.427 16.8682C15.427 14.4663 13.4802 12.5194 11.0783 12.5194C8.67769 12.5193 6.72944 14.4663 6.72944 16.8682ZM19.722 18.8863C20.8372 18.8863 21.7415 17.982 21.7415 16.8682C21.7415 15.753 20.8372 14.8486 19.722 14.8486C18.6067 14.8486 17.7024 15.753 17.7024 16.8682C17.7024 17.982 18.6067 18.8863 19.722 18.8863ZM24.0709 8.22318C24.0709 5.82127 22.1237 3.87565 19.7221 3.87565C17.3202 3.87565 15.3745 5.82127 15.3745 8.22318C15.3745 10.6251 17.3202 12.5719 19.7221 12.5719C22.1237 12.5718 24.0709 10.625 24.0709 8.22318ZM32.7145 16.8682C32.7145 14.4663 30.7688 12.5194 28.367 12.5194C25.9651 12.5194 24.0181 14.4664 24.0181 16.8682C24.0181 19.2699 25.9652 21.2157 28.367 21.2157C30.7688 21.2157 32.7145 19.2699 32.7145 16.8682ZM24.0709 25.5118C24.0709 23.1099 22.1237 21.1629 19.7221 21.1629C17.3202 21.1629 15.3745 23.11 15.3745 25.5118C15.3745 27.9122 17.3202 29.8607 19.7221 29.8607C22.1237 29.8607 24.0709 27.9122 24.0709 25.5118Z" fill="black"/>
</g>
<defs>
<clipPath id="clip0_112_35">
<rect width="40" height="40" fill="black" transform="matrix(0 1 1 0 0 0)"/>
</clipPath>
</defs>
</svg>
