<?xml version="1.0" encoding="utf-8"?>
<!-- Generator: Adobe Illustrator 27.9.0, SVG Export Plug-In . SVG Version: 6.00 Build 0)  -->
<svg version="1.1" id="Layer_1" xmlns="http://www.w3.org/2000/svg" xmlns:xlink="http://www.w3.org/1999/xlink" x="0px" y="0px"
	 viewBox="0 0 100 100" style="enable-background:new 0 0 100 100;" xml:space="preserve">
<style type="text/css">
	.st0{fill:#1e293b;stroke:#1e293b;stroke-width:4;stroke-miterlimit:10;}
</style>
<path class="st0" d="M51.8,15.3l10,20.2c0.3,0.6,0.9,1.1,1.6,1.2l22.3,3.2c1.7,0.3,2.4,2.4,1.2,3.6L70.7,59.2
	c-0.5,0.5-0.7,1.2-0.6,1.9l3.8,22.2c0.3,1.7-1.5,3.1-3.1,2.2L50.9,75.1c-0.6-0.3-1.4-0.3-2,0L29,85.5c-1.6,0.8-3.4-0.5-3.1-2.2
	l3.8-22.2c0.1-0.7-0.1-1.4-0.6-1.9L13,43.5c-1.3-1.2-0.6-3.4,1.2-3.6l22.3-3.2c0.7-0.1,1.3-0.5,1.6-1.2l10-20.2
	C48.7,13.7,51,13.7,51.8,15.3z"/>
</svg>
